<?xml version="1.0" encoding="utf-8" ?>
<svg xmlns="http://www.w3.org/2000/svg" xmlns:xlink="http://www.w3.org/1999/xlink" width="512" height="512">
	<path fill="#2B2D42" d="M411.045 41.1115L485.625 41.8053C505.509 43.5906 508.621 50.8786 509.829 69.3442C510.203 75.0626 509.987 80.8989 509.989 86.6329L509.902 343.162L508.389 358.648C505.118 389.132 492.048 403.251 461.456 403.314L426.042 402.393L413.629 402.304C411.001 402.255 408.432 401.841 405.797 401.808L338.645 401.25C334.18 401.244 329.64 400.87 325.196 401.326C327.72 412.043 336.074 428.308 346.667 432.843C358.403 437.867 379.806 432.747 388.436 447.534C392.381 454.294 387.489 461.737 381.31 464.936L380.598 465.314C376.24 467.63 371.843 468.355 367.023 469.027L356.695 470.179C353.38 470.422 350.028 470.273 346.706 470.392L264.516 470.847C261.803 470.821 259.128 470.358 256.44 470.335L164.567 469.611C154.893 469.098 139.903 468.101 135.38 458.696C134.243 456.333 133.659 452.958 134.597 450.454L134.729 450.125C136.172 446.262 139.053 444.105 142.595 442.288C149.793 438.953 158.679 438.236 166.478 437.376C169.143 437.082 172.295 437.077 174.814 436.12C183.795 432.707 189.742 423.017 194.061 415.035L200.444 402.015L47.0779 408.575C13.5532 408.458 5.84523 391.493 5.65901 360.288L6.09353 332.933L5.74227 89.4158C6.30549 51.7189 21.9034 43.1859 57.5002 41.5163L332.875 41.5412L411.045 41.1115ZM140.71 59.8777L105.561 82.7131L105.086 81.1736C110.075 75.8504 129.554 63.793 135.796 60.4271C138.046 59.1498 140.232 58.5366 142.669 57.7618C136.916 57.1713 131.153 57.1561 125.375 57.2648C123.088 57.3078 120.157 58.0683 117.979 57.5909C115.245 56.992 111.925 57.2447 109.122 57.2342L70.23 57.7282C57.4116 58.1894 42.2242 60.3061 31.5 67.4718C21.126 74.4035 22.7004 94.4414 22.6975 105.182L22.9349 135.431C23.053 142.159 22.5218 149.27 23.5001 155.92C24.5865 154.741 25.5025 153.852 26.875 153.006L45.625 141.415L27.697 153.393C26.3452 154.369 23.938 155.987 23.1514 157.5L23.0208 178.071L38.625 168.395L26.6743 176.434C25.4471 177.232 23.984 177.707 23.0044 178.789L23.0106 202.71L41.625 191.903L22.9506 203.641C22.5321 205.477 22.7356 207.714 22.7336 209.607L22.7342 237.924C22.7377 241.71 22.601 245.55 22.9976 249.322C22.9066 250.267 22.7178 251.257 23.0151 252.172C22.5479 257.89 22.5873 270.885 23.1704 276.334L37.7813 267.125L23.3473 276.654C22.2893 279.268 23.0586 300.696 23.5043 303.292C28.2084 300.172 40.151 290.374 44.1354 290.595C39.8842 292.754 35.9144 295.085 31.9802 297.776L23.5497 303.746C22.588 305.223 23.0044 330.602 22.9868 334.365C30.837 328.28 54.8004 317.078 63.5845 313.764C61.3929 316.1 57.651 317.202 54.8581 318.625L29.4438 331.972C24.7511 334.519 22.7509 333.792 22.7141 338.982L22.6156 346.775C22.5694 348.183 22.593 349.674 22.2248 351.036L22.1658 351.236C25.2047 351.564 29.7231 350.584 33.0304 350.544L71.0809 349.731L118.946 348.223C121.524 348.169 124.051 347.731 126.622 347.679L143.818 347.502L206.164 344.628C208.057 344.518 209.967 344.15 211.843 344.097L277.327 344.096C279.545 344.157 281.694 344.639 283.875 344.725L299.293 344.837C301.953 344.915 304.561 345.396 307.203 345.487L323.771 345.674L367.6 347.576L382.344 347.678C384.838 347.721 387.284 348.17 389.75 348.237L413.092 348.335C415.662 348.379 418.214 348.781 420.758 348.811L451.999 348.895L494.483 350.772C495.687 344.857 495.705 337.557 495.554 331.513C492.639 333.88 489.078 335.806 485.75 337.542L491 333.954C492.401 333.01 493.728 331.994 495.266 331.276L495.634 330.492C496.252 326.087 495.822 321.152 495.835 316.685L496.302 226.783L495.75 94.5656C495.715 93.4288 495.512 87.7317 494.888 86.8843L493.919 86.9138C494.394 86.6848 494.736 86.4933 495.115 86.125C494.897 83.0369 494.687 70.7378 493 68.9813L492.321 68.9702C494.055 68.2346 492.541 62.4644 492.138 60.9649C488.189 58.3845 482.851 57.8863 478.25 57.3946L470.159 56.6322L167.893 56.6059C165.853 56.6773 163.877 57.1379 161.875 57.2374C156.513 57.5038 151.218 56.9071 145.875 57.7415C143.986 58.0365 142.675 59.1463 140.909 59.8059L140.71 59.8777Z"/>
	<path fill="#8D99AE" d="M304.285 437.8L326.091 437.79C327.471 437.792 331.851 437.455 332.879 438.295C335.355 440.317 337.498 444.337 337.835 447.502C326.238 449.625 314.166 450.377 302.413 451.204L263.649 453.241L215.875 453.343L182.235 452.307C184.411 449.547 189.998 438.504 192.463 438.49L233.761 438.37C236.149 438.288 238.465 437.846 240.864 437.825L304.285 437.8Z"/>
	<path fill="#8D99AE" d="M242.405 401.781L315.411 401.849C316.129 403.433 316.294 405.391 316.952 407.077C320.022 414.939 323.982 423.934 329.274 430.642L282.611 431.217L195.014 431.207C195.993 430.185 196.448 428.808 197.212 427.6L207.188 411.196C208.016 409.726 211.248 402.762 212.013 402.629L242.405 401.781Z"/>
	<path fill="#8D99AE" d="M179.943 393.572L119.67 396.322C116.856 396.551 114.041 396.665 111.248 397.104L121.808 386.641C123.129 385.296 127.076 382.107 125.744 380.026C121.459 377.683 107.907 395.46 101.597 397.004C97.1166 398.101 91.8293 397.806 87.2269 397.997C91.6516 393.18 97.7348 387.76 100.146 381.617C94.1976 380.735 92.2686 383.966 87.9348 387.585L81.2749 392.734C79.1554 394.32 77.1031 395.924 74.6554 396.985L74.2658 397.15C72.4276 397.935 63.6047 398.129 62.9805 397.555C65.6828 393.658 69.13 390.35 72.3847 386.927C75.5489 383.599 80.5206 380.528 74.5382 378.603C70.4484 380.001 67.3761 383.157 64.077 385.829L56.5354 391.558C49.619 396.608 47.3393 396.045 38.7041 394.706C42.3276 390.969 46.3459 387.762 49.8353 383.835C57.0088 375.76 50.6761 375.868 44.4435 381.527C40.5025 385.106 35.6152 390.133 30.4292 391.562C22.4106 386.915 21.8248 367.627 21.6763 359.529L492.926 359.476C490.652 369.948 488.87 377.571 479.553 383.506C462.398 394.432 446.925 391.651 429.018 393.679L428.63 393.725C432.816 391.051 444.691 379.345 447.237 375.345C441.812 371.779 440.579 375.464 437.255 378.747C432.257 383.682 427.038 388.685 421.2 392.625C418.935 394.154 413.58 393.463 410.877 393.465L398.765 393.511C403.353 390.82 414.633 380.466 418.272 375.825C413.514 373.493 411.309 376.482 408.73 379.21C402.558 385.738 395.274 392.942 385.885 393.006L364.164 393.509C370.851 389.167 382.289 379.715 388.082 374.101C382.636 372.046 379.26 375.071 375.233 378.609L361.379 390.273C356.969 393.693 358.439 392.962 352.503 392.998C346.128 393.036 339.292 392.524 332.968 393.316L332.658 393.358C340.471 388.055 349.829 380.007 356.054 372.966C351.096 371.941 348.378 374.879 344.839 377.972L336.148 385.924C333.961 388.004 330.954 389.966 329.966 392.933L209.574 393.53C209.712 393.113 210.914 392.437 211.5 391.986L216.126 388.169C218.464 386.037 227.343 377.801 226.185 374.073L225.375 374.005C223.818 374.791 222.528 375.935 221.194 377.043L213.822 383.754C210.633 386.803 207.243 389.832 204.425 393.229L188.434 393.509C185.996 393.53 183.367 393.849 180.964 393.506C191.403 390.189 200.527 376.691 210.358 369.765C199.729 372.703 191.811 380.237 184.374 387.966C182.836 389.564 180.539 391.402 179.943 393.572Z"/>
	<path fill="#2B2D42" d="M252.454 361.543C268.341 360.106 271.295 380.765 256.258 385.822C239.168 388.217 237.396 366.122 252.454 361.543Z"/>
	<path fill="#8D99AE" d="M253.699 369.375C258.44 368.532 263.824 375.298 255.646 379.146L255 379.32C249.969 380.627 247.819 372.659 253.699 369.375Z"/>
	<path fill="#8D99AE" d="M22.9976 249.322C26.5472 246.481 35.4759 240.939 39.625 238.877L39.8725 239.125C33.6473 243.079 28.3244 247.025 23.026 252.172C22.7178 251.257 22.9066 250.267 22.9976 249.322Z"/>
	<path fill="#2B2D42" d="M123.107 135.652C124.762 135.552 135.54 134.244 132.28 138.576C130.082 139.191 127.448 138.881 125.183 138.807L114.438 138.306L104.001 137.465L123.107 135.652Z"/>
	<path fill="#2B2D42" d="M382.829 135.317C390.779 135.153 398.601 134.987 406.246 137.489L401.447 137.993L386.23 138.984C383.758 139.004 381.087 139.4 379.112 137.638L379.171 136.956C380.17 135.698 381.323 135.597 382.829 135.317Z"/>
	<path fill="#2B2D42" d="M105.933 109.486C109.434 108.098 112.098 108.243 115.827 108.24L133.012 108.255C137.538 108.309 140.016 112.207 135.75 114.233L135.419 114.392C131.346 116.262 120.16 115.626 115.493 115.31L106.118 114.479L98.1546 113.489L105.933 109.486Z"/>
	<path fill="#2B2D42" d="M383.665 108.108L412.479 108.375C416.957 108.572 415.27 110.959 417.031 115.342L409.687 115.468L391.287 115.478C387.748 115.471 383.249 115.947 379.854 114.967L379.5 114.856C371.895 112.607 379.301 108.41 383.665 108.108Z"/>
	<path fill="#2B2D42" d="M385.601 185.268C392.101 186.072 398.931 185.681 405.485 185.684L447.804 185.711C459.302 185.736 453.657 191.264 447.3 191.474C442.277 191.438 437.086 191.748 432.046 191.753L390.625 191.675C386.444 191.598 381.199 191.209 377.569 188.896C379.983 187.06 382.705 186.073 385.601 185.268Z"/>
	<path fill="#2B2D42" d="M117.74 211.061C121.913 210.846 129.497 209.856 132.875 212.75C133.301 214.518 130.474 216.22 129.079 216.645L128.75 216.74C126.741 217.343 124.52 217.213 122.441 217.224L112.924 217.316C111.226 217.374 109.568 217.731 107.875 217.809L75.1874 218.488L69.2395 218.635C67.3164 218.695 65.3558 218.968 63.571 218.1L63.25 217.94C50.9937 212.095 77.2382 211.829 79.2773 211.792L99.9519 211.453C105.82 211.438 111.908 211.73 117.74 211.061Z"/>
	<path fill="#2B2D42" d="M98.6538 237.678L125.05 237.723C127.216 237.737 129.963 237.538 131.943 238.575L133.837 239.625C134.564 240.113 134.797 240.282 134.985 241.125L134.682 241.467C131.284 245.013 115.28 244.371 110.625 244.387L96.1875 244.444C93.8803 244.466 91.1297 244.749 88.7675 244.753L71.3042 244.811C69.1173 244.82 65.5962 245.302 63.6416 244.384L62.6323 243.906C61.9249 243.5 61.1924 243.044 60.9918 242.25L61.625 241.462C64.6184 238.474 67.5085 238.283 71.4025 238.272L98.6538 237.678Z"/>
	<path fill="#2B2D42" d="M95.6606 263.862L123.636 263.811C127.278 263.811 132.554 264.139 135.196 267.125L135.048 267.547C129.565 270.516 118.721 270.207 112.274 270.442C109.986 270.526 107.764 270.912 105.5 271.049L100.116 271.169C96.8956 270.944 93.5616 271.146 90.3283 271.166L73.1234 271.201C70.2313 271.202 66.9713 271.487 64.125 271.049C59.0869 270.272 61.2415 265.137 64.9251 264.223C68.077 263.44 72.2665 263.915 75.5481 263.905L95.6606 263.862Z"/>
	<path fill="#2B2D42" d="M383.983 284.756L443.727 285.25C445.762 285.249 448.538 284.928 450.445 285.626C454.239 289.269 449.066 291.336 445.562 291.716L411.848 292.293C407.017 292.286 380.635 292.516 378.242 288.875L378.33 288.566C379.087 286.863 382.331 285.385 383.983 284.756Z"/>
	<path fill="#2B2D42" d="M383.849 237.586L453.334 237.691C454.202 237.792 454.95 238.531 455.494 239.154L456.415 240.211C454.629 242.828 452.949 243.641 449.805 244.198L409.859 244.39C404.029 244.377 381.863 246.057 378.274 240.875L378.359 240.646C379.287 238.846 382.045 238.102 383.849 237.586Z"/>
	<path fill="#2B2D42" d="M384.766 262.765L441.843 262.764C444.701 262.766 447.669 262.65 450.506 263.002L450.921 263.056C458.88 264.033 453.817 268.126 449.057 269.19L396.5 269.488C392.31 269.308 382.636 270.181 379.435 267.017L379.452 266.375C380.504 264.359 382.734 263.493 384.766 262.765Z"/>
	<path fill="#2B2D42" d="M437.635 211.478L446.625 211.434C449.787 211.404 455.128 210.65 455.492 215.125C453.539 219.315 447.069 217.771 443.363 217.95L397.104 218.491L389.142 218.425C387.637 218.403 386.038 218.502 384.59 218.042L381.019 216.59C380.093 216.174 379.393 215.863 379.013 214.875C382.182 211.018 389.916 211.506 394.261 211.497L437.635 211.478Z"/>
	<path fill="#2B2D42" d="M433.762 153.849C438.486 153.747 443.471 153.412 448.145 154.079C460.03 155.773 445.814 161.674 441.734 162.45C434.382 163.848 426.482 163.323 419.029 163.29L396.752 163.317L385.82 163.462C383.128 163.23 380.091 162.958 377.947 161.125L377.993 160.5C384.655 152.133 409.844 157.092 420.344 156.594C423.681 156.436 429.373 154.432 433.762 153.849Z"/>
	<path fill="#2B2D42" d="M73.4413 288.919L120.177 289.508C124.197 289.52 134.568 289.353 136.52 293.875C134.99 297.194 126.257 296.971 123.438 297.007C121.429 297.166 118.992 296.916 116.938 296.917L79.3898 296.87C74.524 296.856 66.4051 297.981 62.125 295.395C57.4949 287.759 69.2967 288.985 73.4413 288.919Z"/>
	<path fill="#2B2D42" d="M95.9317 155.652L124.593 155.971C126.767 156.089 129.081 156.077 131.206 156.573L131.625 156.675C133.069 157.004 135.026 158.68 135.231 160.131C135.58 162.615 124.909 162.889 123.221 162.981L98.0625 163.265L64.1559 163.439C55.2841 163.692 58.0709 157.388 63.875 155.858C65.0551 155.546 66.4644 155.689 67.6854 155.699L95.9317 155.652Z"/>
	<path fill="#2B2D42" d="M85.573 182.611L108.52 182.509C116.135 182.511 129.88 181.772 136.391 186.136C135.416 187.335 134.361 188.277 132.905 188.844L132.625 188.949C129.563 190.171 124.771 189.666 121.46 189.7L108.47 189.746C98.3781 191.222 88.088 190.33 78 191.758C74.3214 192.278 70.4121 192.906 66.7317 192.04L66.25 191.921C63.2838 191.308 60.6788 190.625 59.7297 187.258C63.4607 183.668 68.2738 183.486 73.2129 183.131L85.573 182.611Z"/>
	<path fill="#2B2D42" d="M230.09 84.7786L261.711 84.9895C263.399 85.0604 265.08 85.3545 266.772 85.459L297 88.5658L322.651 92.7767C337.082 95.7628 355.11 102.102 363.354 114.857L363.569 115.196C365.704 118.501 366.154 122.83 366.231 126.694L366.252 275.642C366.249 283.24 366.773 291.232 365.547 298.74C362.061 320.102 342.455 326.847 323.75 331.249C308.521 334.833 293.102 337.159 277.437 337.374L242.551 337.236C230.878 336.758 219.092 335.479 207.5 334.004C184.44 331.069 152.347 324.759 146.83 297.75C145.876 293.079 146.016 288.241 146.009 283.5L146.037 250.818C146.1 248.642 146.499 246.497 146.531 244.315L146.561 214.276C146.568 210.693 146.979 190.467 146.153 188.947C145.3 187.374 143.356 187.605 142.516 186.25L146.318 185.591C149.184 181.595 142.603 123.57 149.476 113.366L152.436 109.571C169.353 91.0054 190.952 87.6661 214.52 85.9154L230.09 84.7786ZM283.345 203.779C298.221 203.918 319.145 199.27 332.266 192.365C335.232 192.517 345.87 183.706 349.765 181.503C350.869 180.878 352.226 180.694 353.418 180.228C353.774 177.223 353.687 174.129 353.71 171.103L353.754 156.405L353.775 136.438C352.2 138.848 341.09 143.231 338.377 144.332C316.626 150.382 298.594 153.406 275.686 154.537L249.817 154.634C243.667 154.496 237.574 153.279 231.46 153.192C231.306 153.044 231.409 153.105 231.12 153.076L207.634 150.066L184.435 144.852L171.782 139.715C167.866 137.523 162.637 135.006 159.757 131.546L159.662 174.628C159.676 177.133 159.421 180.195 160.245 182.579C175.527 194.141 194.918 197.717 213.532 200.2L247.625 203.19C249.433 203.312 251.206 203.661 253.028 203.743L271.905 203.895C275.696 203.903 279.563 204.065 283.345 203.779ZM349.52 199.137L340.505 203.623C311.057 217.055 281.048 218.021 249.015 217.184L242.26 216.74C221.678 215.916 201.31 213.875 181.704 207.174C177.688 205.768 162.493 200.141 159.664 197.025L159.62 228.637C159.631 233.71 159.231 239.169 159.752 244.198C161.068 245.35 162.81 245.974 164.334 246.837C181.891 256.784 203.725 260.665 223.42 263.326C229.22 264.11 235.448 265.079 241.306 265.076C243.376 265.507 245.673 265.46 247.793 265.564L247.882 265.448C253.734 266.118 259.589 266.158 265.47 266.157L276.237 266.057C277.799 265.97 279.332 265.646 280.89 265.545L289.358 265.235C300.756 264.395 322.345 261.189 332.273 254.89C339.826 252.948 346.17 243.969 351.388 242.104C352.153 241.83 352.75 241.47 353.43 241.028L353.678 201.492C353.29 199.832 353.528 197.667 353.529 195.943C352.312 197.225 350.983 198.155 349.52 199.137ZM252.415 279.021C228.257 278.658 203.069 275.677 180.157 267.769C175.066 266.384 170.381 263.62 165.403 261.918C158.017 258.394 159.504 258.828 159.62 264.6L159.624 275.655L159.597 288.539C159.598 291.421 159.367 294.72 160.092 297.526C164.869 315.998 205.577 319.578 222 321.764C231.55 323.035 241.054 324.54 250.682 325.123C273.159 326.485 285.375 324.494 307.125 320.005C320.998 317.142 336.011 315.262 347.458 306.145L347.535 305.966C355.367 300.676 353.766 288.71 353.757 280.638L353.534 257.564L352.401 258.701C346.527 264.554 330.707 270.223 323 272.458C300.102 279.099 276.025 279.041 252.415 279.021Z"/>
	<path fill="#8D99AE" d="M234.126 95.5397C235.133 95.3234 236.423 95.4747 237.47 95.4661L260.911 95.5639C273.049 96.2725 284.886 98.3362 296.839 100.408C311.878 103.014 343.621 107.914 350.878 123.426L349.9 124.668C339.055 137.093 298.343 140.934 282.812 141.977L248.25 142.564C227.607 142.212 178.723 134.51 165.995 121.298C167.871 114.764 176.869 109.874 182.382 107.134C198.753 98.9963 216.012 96.167 234.126 95.5397Z"/>
	<path fill="#2B2D42" d="M316.297 310.61C322.004 306.023 327.773 301.506 334.592 298.723C334.486 300.534 334.369 301.977 334.491 303.787C330.389 311.719 319.145 315.92 310.509 316.06C312.07 313.822 314.205 312.309 316.297 310.61Z"/>
	<path fill="#2B2D42" d="M305.381 306.85C305.786 306.845 305.996 306.905 306.375 307.025L307.492 309.762C307.226 311.6 306.586 313.216 305.891 314.921C300.941 316.61 285.819 317.882 281.023 316.929L278.261 316.15C284.628 310.078 296.79 307.403 305.381 306.85Z"/>
	<path fill="#2B2D42" d="M192.175 300.529C196.459 300.336 200.752 301.171 204.972 301.797L219.625 303.999C231.651 305.879 243.749 307.197 255.925 307.222L265.539 307.103C268.11 306.976 270.941 306.526 273.5 306.731C278.93 307.166 272.311 312.778 270.34 313.764C263.045 316.84 250.678 316.04 242.953 315.384L216.021 312.038C211.304 311.388 190.484 309.286 187.785 306.625C187.509 303.976 189.796 301.384 192.175 300.529Z"/>
	<path fill="#2B2D42" d="M175.024 279.269C183.065 279.685 191.101 282.111 198.958 283.774C210.515 286.22 228.417 288.991 240.494 288.793L263.807 288.93C272.552 288.913 281.061 288.993 289.645 287.08C293.722 286.172 297.197 284.946 301.445 284.964C300.163 287.648 298.652 290.038 296.468 292.081C291.143 296.146 284.753 296.27 278.337 296.725L243.582 297.255C231.322 296.684 218.644 295.82 206.56 293.655C198.586 292.227 190.792 289.794 182.875 288.098C179.549 287.385 164.649 286.787 166.497 282.496C169.045 280.42 171.855 279.783 175.024 279.269Z"/>
	<defs>
		<linearGradient id="gradient_0" gradientUnits="userSpaceOnUse" x1="259.0582" y1="248.04576" x2="278.2717" y2="325.13498">
			<stop offset="0" stop-color="#9CB4C3"/>
			<stop offset="1" stop-color="#FFFCFC"/>
		</linearGradient>
	</defs>
	<path fill="url(#gradient_0)" d="M252.415 279.021C276.025 279.041 300.102 279.099 323 272.458C330.707 270.223 346.527 264.554 352.401 258.701L353.534 257.564L353.757 280.638C353.766 288.71 355.367 300.676 347.535 305.966L347.124 305.748C345.916 306.797 344.423 307.674 343.379 308.37L342.627 308.875C342.402 308.401 342.562 308.615 342.125 308.25L340.251 309.251L339.625 309.877C339.163 309.566 339.303 309.729 339.008 309.265L338.085 308.79C337.266 309.053 336.419 308.293 335.598 308.02L335.624 307.447L334.756 307.01C335.215 306.335 335.778 304.721 335.5 304L334.491 303.787C334.369 301.977 334.486 300.534 334.592 298.723C327.773 301.506 322.004 306.023 316.297 310.61L315.938 309.751C314.996 309.364 314.719 308.38 313.5 308.375L314.125 307.877L313.625 307.877C314.468 307.591 314.021 307.535 313.605 307.12L312.25 306.375L313 306.125C313.374 305.998 313.721 305.875 314.109 305.797L314.124 304.812L315.438 304.438L314 303.939C312.927 303.609 311.916 303.455 310.773 303.681L307.75 304.439C306.397 304.805 305.925 304.97 304.578 305.529L304.25 305.689C303.686 305.506 303.115 305.556 302.536 305.44L302.25 305.375C301.629 305.249 301.252 305.165 300.718 304.798L300.418 304.582C299.661 304.568 299.259 304.427 298.588 304.073L298.374 303.957C296.653 304.257 294.675 302.956 292.875 303.25L290.25 300.875C290.51 300.496 290.659 300.204 290.754 299.757L290.837 299.337C293.103 297.569 293.473 297.224 295.346 295.25L294.562 294.876C295.304 293.618 296.187 292.986 297.489 292.875L296.468 292.081C298.652 290.038 300.163 287.648 301.445 284.964C297.197 284.946 293.722 286.172 289.645 287.08C281.061 288.993 272.552 288.913 263.807 288.93L240.494 288.868C228.417 288.991 210.515 286.22 198.958 283.774C191.101 282.111 183.065 279.685 175.024 279.269C175.401 277.288 177.499 275.859 178.378 274.017C179.416 271.839 178.573 270.173 180.157 267.769C203.069 275.677 228.257 278.658 252.415 279.021Z"/>
	<path fill="#2B2D42" d="M345.656 272.625C352.151 271.543 339.001 289.814 325.045 288.401L324.683 288.381L322.774 288.673L322.804 287.584C325.132 283.014 332.115 280.376 336.267 277.94C339.127 276.263 342.509 273.498 345.656 272.625Z"/>
	<path fill="#2B2D42" d="M320.44 280.532C323.991 280.053 322.774 282.578 322.367 285.524L322.314 285.875C321.452 291.923 308.189 294.369 303.323 294.735L300.495 294.25C303.572 288.972 315.063 281.978 320.44 280.532Z"/>
	<defs>
		<linearGradient id="gradient_1" gradientUnits="userSpaceOnUse" x1="253.06812" y1="188.78395" x2="268.44821" y2="269.29947">
			<stop offset="0" stop-color="#C8D0D7"/>
			<stop offset="1" stop-color="#FAF9F8"/>
		</linearGradient>
	</defs>
	<path fill="url(#gradient_1)" d="M349.52 199.137C350.983 198.155 352.312 197.225 353.529 195.943C353.528 197.667 353.29 199.832 353.678 201.492L353.43 241.028C352.75 241.47 352.153 241.83 351.388 242.104C346.17 243.969 339.826 252.948 332.273 254.89C322.345 261.189 300.756 264.395 289.358 265.235L280.89 265.545C279.332 265.646 277.799 265.97 276.237 266.057L265.47 266.157C259.589 266.158 253.734 266.118 247.882 265.448L247.793 265.564C245.673 265.46 243.376 265.507 241.306 265.076C235.448 265.079 229.22 264.11 223.42 263.326C203.725 260.665 181.891 256.784 164.334 246.837C162.81 245.974 161.068 245.35 159.752 244.198C159.231 239.169 159.631 233.71 159.62 228.637L159.664 197.025C162.493 200.141 177.688 205.768 181.704 207.174C201.31 213.875 221.678 215.916 242.26 216.74L249.015 217.184C281.048 218.021 311.057 217.055 340.505 203.623L349.52 199.137ZM241.306 265.068L241.359 265.024C242.26 264.87 242.99 265.092 243.875 265L243.964 264.5C243.554 263.92 243.886 263.923 244.461 263.807L245.127 263L245 261.875C245.446 261.726 245.278 261.766 245.711 261.68L245.377 260.875L247.251 260.001C248.436 259.793 249.923 257.48 249.52 256.312L250.376 256.188L249.048 255.397L265.239 255.56C275.223 255.518 281.758 257.347 286.593 247.679C283.805 246.064 279.984 246.761 276.916 247.012C261.657 248.259 246.716 247.254 231.585 245.1L231.875 244.377C232.362 243.83 232.53 242.895 233 242.5L233.125 241.877C233.122 240.676 233.36 241.614 233.999 241.188C234.206 241.049 234.268 239.964 234.63 239.602L234.873 238.75C235.15 238.334 235.003 238.418 235.375 238.25L235.812 238.062C236.121 237.239 236.926 236.596 237.078 235.946L236.25 235.872L237.151 235.292C227.882 234.511 182.937 230.801 178.754 221.611C178.259 220.522 178.714 219.582 179.068 218.528L180.249 217.498L177.328 216.881C177.541 216.343 177.492 216.597 177.524 216.13L175.688 216.188C175.02 215.908 174.221 215.988 173.5 215.969L173.629 215.368L172.625 215.5C171.019 215.518 169.441 215.243 168.035 215.251L162.375 215.127C162.41 214.928 161.791 214.238 161.705 213.739L161.458 212.43C161.145 211.608 161.185 210.792 160.849 210.053L160.126 208.177L161.067 207.279C161.928 206.42 163.201 206.429 164.337 205.842C165.672 205.994 168.529 206.107 169.365 205.081L169.586 205.153C170.818 204.828 171.112 205.694 172.024 205.715C172.865 205.735 173.763 205.284 174.688 205.312L174.125 205.75L175.787 205.523C176.372 206.061 177.017 205.796 177.607 206.222L177.841 206.427C178.632 206.445 178.995 206.959 179.653 207.009L181.05 208.077C181.48 207.919 181.507 207.572 181.704 207.174C177.688 205.768 162.493 200.141 159.664 197.025L159.62 228.637C159.631 233.71 159.231 239.169 159.752 244.198C161.068 245.35 162.81 245.974 164.334 246.837C181.891 256.784 203.725 260.665 223.42 263.326C229.22 264.11 235.448 265.079 241.306 265.068ZM247.882 265.448C253.734 266.118 259.589 266.158 265.47 266.157L276.237 266.057C277.799 265.97 279.332 265.646 280.89 265.545L289.358 265.235C300.756 264.395 322.345 261.189 332.273 254.89C331.188 254.827 329.063 255.512 328.125 256.127L327.375 256.377C326.302 256.708 325.976 257.074 324.625 256.877L322.99 257.603C322.783 257.931 322.874 257.809 322.58 258.086L322.625 258.377C322.087 258.546 321.691 258.662 321.125 258.627L319.375 258.877C318.323 259.579 318.292 259.383 317 259.439L316.617 259.431C316.246 259.431 316.079 259.474 315.75 259.625L315.625 259.877C315.385 259.877 314.112 260.068 313.875 260.127C312.775 260.402 311.143 261.202 309.835 260.751C309.541 260.649 309.306 260.67 309.026 260.775C307.773 261.248 305.738 260.464 304.312 260.562L304.125 261.25C303.487 260.995 302.881 260.958 302.25 261.375L301.188 262.188C300.676 262.412 300.675 262.557 300.125 262.377L299.75 262.689C299.48 262.87 299.091 262.863 298.812 263.001L297.625 263.877L296.086 263.931C294.6 263.931 295.49 263.779 296.568 263.447L296.57 263.052C295.642 263.072 289.262 263.941 289.125 264L288.125 263.877L288.375 265C287.037 264.867 285.975 264.668 284.625 264.75L284 264.689C282.263 265.77 260.307 265.561 256 265.127L253.359 265.203C253.062 264.906 252.761 264.871 252.375 264.75L251.734 264.701C251.29 264.79 251.037 264.674 250.625 264.529L250.368 264.808C249.716 265.425 248.737 265.455 247.882 265.448ZM349.52 199.137L349.923 199.118C350.491 199.056 350.691 198.9 351.126 198.562L351.137 198.898C351.194 199.449 351.406 199.696 351.682 200.152L352.251 201.499C352.427 202.478 352.505 203.413 353.25 204.125L353.5 207.375C353.426 205.473 353.211 203.379 353.678 201.492C353.29 199.832 353.528 197.667 353.529 195.943C352.312 197.225 350.983 198.155 349.52 199.137Z"/>
	<path fill="#505874" d="M332.493 243.322C333.125 243.496 333.145 243.486 333.756 243.243C334.583 243.677 335.187 243.957 335.698 244.759L332.874 247.186L332.493 243.322Z"/>
	<path fill="#8D99AE" d="M333.756 243.243C336.34 241.59 338.703 239.415 341.328 237.936C339.965 241.187 338.592 242.747 335.698 244.759C335.187 243.957 334.583 243.677 333.756 243.243Z"/>
	<path fill="#2B2D42" d="M340.766 211.625C346.264 210.919 339.965 225.958 322.613 228.554L322.478 228.524C321.76 228.396 321.352 228.378 320.766 227.875L322.085 224.625C324.539 220.322 335.538 213.202 340.766 211.625Z"/>
	<path fill="#2B2D42" d="M332.874 247.186L332.54 247.457C324.323 254.101 301.884 257.333 291.462 256.215C298.9 248.085 296.725 250.793 306.25 247.979C308.43 247.335 311.717 245.067 312.786 246.46L313 246.747C317.475 246.94 321.502 246.319 324.861 243.375C326.138 242.256 330.665 239.548 332.394 241.048L332.493 243.322L332.874 247.186Z"/>
	<path fill="#2B2D42" d="M180.249 217.498C184.113 216.691 189.539 218.701 193.318 219.65L218.147 224.806C239.186 228.22 280.492 229.166 301.602 225.082C308.274 223.792 314.43 221.197 320.931 219.319C315.599 230.7 314.259 231.137 302.602 233.201C289.038 235.602 275.66 236.015 261.932 236.001L237.151 235.371C227.882 234.511 182.937 230.801 178.754 221.611C178.259 220.522 178.714 219.582 179.068 218.528L180.249 217.498Z"/>
	<path fill="#8D99AE" d="M179.068 218.528C178.281 218.027 172.09 218.068 170.589 217.937C167.038 217.626 162.902 217.201 159.494 216.285C163.676 214.076 172.88 216.236 177.328 216.881L180.249 217.498L179.068 218.528Z"/>
	<path fill="#2B2D42" d="M249.048 255.397C231.463 254.602 183.589 249.59 172.623 239.921C175.711 232.847 179.372 235.265 186.206 236.909L198.875 239.864C209.637 242.077 220.648 244.016 231.585 245.1C246.716 247.254 261.657 248.259 276.916 247.012C279.984 246.761 283.805 246.064 286.593 247.679C281.758 257.347 275.223 255.518 265.239 255.56L249.048 255.397Z"/>
	<defs>
		<linearGradient id="gradient_2" gradientUnits="userSpaceOnUse" x1="253.08743" y1="114.08119" x2="283.09973" y2="208.88965">
			<stop offset="0" stop-color="#ADB8C6"/>
			<stop offset="1" stop-color="#FFFFFD"/>
		</linearGradient>
	</defs>
	<path fill="url(#gradient_2)" d="M283.345 203.779C279.563 204.065 275.696 203.903 271.905 203.895L253.028 203.743C251.206 203.661 249.433 203.312 247.625 203.19L213.532 200.2C194.918 197.717 175.527 194.141 160.245 182.579C159.421 180.195 159.676 177.133 159.662 174.628L159.757 131.546C162.637 135.006 167.866 137.523 171.782 139.715L184.435 144.852L207.634 150.066L231.12 153.076C231.409 153.105 231.306 153.044 231.46 153.192C237.574 153.279 243.667 154.496 249.817 154.634L275.686 154.537C298.594 153.406 316.626 150.382 338.377 144.332C341.09 143.231 352.2 138.848 353.775 136.438L353.754 156.405L353.71 171.103C353.687 174.129 353.774 177.223 353.418 180.228C352.226 180.694 350.869 180.878 349.765 181.503C345.87 183.706 335.232 192.517 332.266 192.365C319.145 199.27 298.221 203.918 283.345 203.779ZM283.345 203.779C280.789 203.254 277.832 203.651 275.25 203.658L273.23 202.994C272.234 202.849 271.043 203.366 269.914 203.196L269.125 203.373C268.654 203.107 268.293 202.874 267.751 202.789L266.75 202.625C263.404 202.102 265.626 202.26 262.754 202.48L262.375 202.5C261.985 203.41 260.586 203.346 259.877 202.875L259.875 200.877C259.52 200.516 259.627 200.482 259.627 200L259.75 199.25C259.861 199.049 259.765 197.534 259.689 197.23L259.627 197C260.014 196.61 259.839 195.885 260.001 195.312L260.562 195.062L260.627 193.375L261.375 193.25C260.878 193.081 260.56 192.849 260.12 192.548L269.93 192.562C272.464 192.563 275.968 192.966 278.148 191.488L278.5 191.239C280.737 189.707 282.179 187.918 283.688 185.683C278.859 183.61 274.059 184.409 268.944 184.551L246.226 183.537C238.616 183.009 230.899 182.497 223.368 181.242C223.65 181.001 223.834 180.843 224.194 180.729L224.5 180.641C226.481 179.83 226.474 180.908 225.812 179.188L225.874 177.188L225.649 176.237C225.831 175.653 225.393 175.363 225.062 174.938L225.062 174.188C225.239 173.698 225.21 173.921 225.178 173.354L225.438 172.624L225.873 173.375C225.746 172.788 225.778 172.837 225.944 172.319L227 172.25C228.055 172.063 229.07 172.124 230.108 171.875L230.33 171.82C216.752 170.393 190.344 167.278 178.072 160.63L168.141 154.283C169.259 154.195 170.55 154.214 171.629 153.923L171.927 153.838L172.531 153.276C173.008 153.24 172.792 153.292 173.295 153.078L175.125 152.377C179.993 149.892 172.21 152.696 171.17 147.759L171.127 147.5C170.918 146.79 170.894 146.249 170.877 145.5L171.5 144.25C171.762 143.851 171.799 143.71 172.239 143.453L173.188 142.938C173.985 142.491 174.465 142.411 175.375 142.377L175.126 141.812C174.126 141.365 172.252 140.671 171.782 139.715C167.866 137.523 162.637 135.006 159.757 131.546L159.662 174.628C159.676 177.133 159.421 180.195 160.245 182.579C175.527 194.141 194.918 197.717 213.532 200.2L247.625 203.19C249.433 203.312 251.206 203.661 253.028 203.743L271.905 203.895C275.696 203.903 279.563 204.065 283.345 203.779ZM353 156.903C353.003 157.905 353.132 158.68 353.25 159.625L352.624 160.438L352.365 159.595C351.97 159.799 352.153 159.683 351.812 159.938L351.266 159.922C348.092 163.889 349.608 169.138 345.625 173L344.376 173.617L344.997 173.625C344.785 180.654 340.425 183.509 334.056 184.98C333.777 185.766 333.533 186.281 333.75 187.125L333.562 187.562C333.308 188.354 333.577 188.508 333 189.25L333.5 189.375C333.61 189.904 333.717 190.332 333.625 190.877L332.898 191.539C332.512 191.731 332.388 191.826 332.146 192.161L332.266 192.365C335.232 192.517 345.87 183.706 349.765 181.503C350.869 180.878 352.226 180.694 353.418 180.228C353.774 177.223 353.687 174.129 353.71 171.103L353.752 156.405L353 156.903Z"/>
	<path fill="#2B2D42" d="M344.376 173.617L344.997 173.625C344.785 180.654 340.425 183.509 334.056 184.98C333.133 185.243 332.241 185.585 331.273 185.448L331.23 185.125C335.952 181.404 340.528 178.381 344.376 173.617Z"/>
	<path fill="#B4C1CB" d="M223.96 162.549C224.307 162.463 224.592 162.407 224.911 162.247L225.875 162.5C228.495 161.944 231.344 163.263 233.875 163.25L235.375 163.25C237.154 163.233 238.822 163.586 240.641 163.408L240.875 163.377C241.371 163.662 247.234 163.962 248.5 163.939L280.248 164.289C280.754 164.356 281.127 164.281 281.594 164.538L281.812 164.688C282.253 164.641 282.608 164.613 283.051 164.685L283.875 164.377C285.069 164.35 286.045 164.259 287.117 164.893L289.375 164.627C289.941 164.439 290.579 164.33 291.125 164.127L299.5 161.439C300.53 161.277 301.605 160.855 302.563 160.443L304 159.877C304.533 159.581 304.362 159.626 304.938 159.688L306.125 159.25C306.874 158.631 308.214 158.18 309.125 157.877L309.75 157.689C310.441 157.371 309.689 157.613 310.375 157.377L311.312 157.001C311.824 156.789 312.375 156.536 312.9 156.36L315.559 155.368C316.682 154.871 317.521 155.003 318.5 154.853C319.053 154.769 319.347 154.424 320.125 154.382L319.812 155.284C316.609 154.132 306.12 159.739 302.73 160.907L292.109 164.272C289.613 165.026 287.012 165.695 284.641 166.797L283.75 167.244C283.667 166.547 283.705 166.294 283.253 165.738L283.42 165.329C276.85 164.785 272.383 164.698 265.65 164.695L237.199 163.723C232.782 163.429 228.33 163.312 223.96 162.549Z"/>
	<path fill="#2B2D42" d="M342.534 147.349C343.627 146.957 345.255 146.11 346.398 146.375L346.844 146.875C345.369 155.372 330.915 165.299 323.62 167.608C320.3 167.989 321.516 166.442 322.686 164.268C326.68 156.848 335.504 151.392 342.534 147.349Z"/>
	<path fill="#2B2D42" d="M283.75 167.244L284.641 166.797C287.012 165.695 289.613 165.026 292.109 164.272L302.73 160.907C306.12 159.739 316.609 154.132 319.812 155.284C317.231 160.312 315.247 165.334 309.545 167.164L298.137 170.231C292.972 171.508 287.24 173.483 282.07 171.426C282.513 170.009 282.871 168.461 283.75 167.244Z"/>
	<path fill="#2B2D42" d="M326.047 177.516C326.53 177.479 326.855 177.486 327.32 177.625L327.247 184.332C328.094 184.23 329.631 183.831 330.375 184.251L330.375 184.773C325.941 189.392 297.254 193.31 290.688 193.56C281.45 193.482 288.25 188.568 291.891 186.938C297.075 184.617 308.472 183.686 314.694 181.961C318.641 180.867 322.155 178.785 326.047 177.516Z"/>
	<path fill="#2B2D42" d="M177.719 152.491C182.018 153.308 186.108 154.767 190.328 155.89C201.108 158.759 212.764 161.8 223.96 162.53C228.33 163.312 232.782 163.429 237.199 163.723L265.65 164.695C272.383 164.698 276.85 164.785 283.42 165.329L283.253 165.738C280.05 167.449 278.049 171.291 276.125 172.003L275.729 172.153C273.775 172.84 271.6 172.741 269.557 172.75L233.459 172.102C232.533 172.008 231.224 171.675 230.33 171.82C216.752 170.393 190.344 167.278 178.072 160.63L168.141 154.283C169.259 154.195 170.55 154.214 171.629 153.923L171.927 153.838C173.927 153.592 175.686 152.611 177.719 152.491Z"/>
	<path fill="#2B2D42" d="M260.12 192.548L209.168 188.246C201.368 187.122 176.566 183.19 171.643 176.625C171.825 171.822 175.813 171.887 179.112 172.557L207.663 178.769C212.836 179.784 218.125 180.722 223.368 181.242C230.899 182.497 238.616 183.009 246.226 183.537L268.944 184.551C274.059 184.409 278.859 183.61 283.688 185.683C282.179 187.918 280.737 189.707 278.5 191.239L278.148 191.488C275.968 192.966 272.464 192.563 269.93 192.562L260.12 192.548Z"/>
</svg>
